<svg id="Group_12897" data-name="Group 12897" xmlns="http://www.w3.org/2000/svg" xmlns:xlink="http://www.w3.org/1999/xlink" width="20" height="20" viewBox="0 0 20 20">
  <defs>
    <clipPath id="clip-path">
      <path id="Path_71077" data-name="Path 71077" d="M1689.212,282.741a10,10,0,1,1-10,10,10,10,0,0,1,10-10Z" transform="translate(-1679.212 -282.741)" fill="none" clip-rule="evenodd"/>
    </clipPath>
    <clipPath id="clip-path-2">
      <path id="Intersection_16" data-name="Intersection 16" d="M0,14.63,15.774,0a12.69,12.69,0,0,1,.218,1.92L1.9,14.992A12.613,12.613,0,0,1,0,14.63Z" fill="none"/>
    </clipPath>
    <clipPath id="clip-path-4">
      <path id="Intersection_17" data-name="Intersection 17" d="M0,13.606,14.89,0a10.024,10.024,0,0,1,1.382,2.155L2.078,15.126A10.21,10.21,0,0,1,0,13.606Z" fill="none"/>
    </clipPath>
    <clipPath id="clip-path-6">
      <path id="Path_71091" data-name="Path 71091" d="M1774.734,370.8a7.465,7.465,0,1,0,7.465,7.465,7.469,7.469,0,0,0-7.465-7.465Z" transform="translate(-1767.269 -370.797)" fill="none" clip-rule="evenodd"/>
    </clipPath>
    <clipPath id="clip-path-7">
      <path id="Intersection_18" data-name="Intersection 18" d="M0,7.1A7.371,7.371,0,0,1,.8,3.749a7.316,7.316,0,1,1,9.817,10.029A7.409,7.409,0,0,1,0,7.1Z" fill="none"/>
    </clipPath>
  </defs>
  <g id="Group_3006" data-name="Group 3006" transform="translate(0)">
    <path id="Path_71074" data-name="Path 71074" d="M1689.212,282.741a10,10,0,1,1-10,10,10,10,0,0,1,10-10Z" transform="translate(-1679.212 -282.741)" fill="#ffe44e" fill-rule="evenodd"/>
    <g id="Group_2993" data-name="Group 2993">
      <g id="Group_2992" data-name="Group 2992" clip-path="url(#clip-path)">
        <path id="Path_71075" data-name="Path 71075" d="M1758.24,218.942a36.263,36.263,0,1,1-36.263,36.263,36.28,36.28,0,0,1,36.263-36.263Z" transform="translate(-1721.006 -220.391)" fill="#ffd635" fill-rule="evenodd"/>
        <path id="Path_71076" data-name="Path 71076" d="M1896.182,500.848l-.835-.9-18.76,17.4.835.9,18.76-17.4Z" transform="translate(-1872.104 -495.015)" fill="#fff09c" fill-rule="evenodd"/>
      </g>
    </g>
    <g id="Group_2995" data-name="Group 2995" transform="translate(3.998 4.928)">
      <g id="Group_2994" data-name="Group 2994" transform="translate(0 0)" clip-path="url(#clip-path-2)">
        <path id="Path_71078" data-name="Path 71078" d="M1767.934,218.942a45.957,45.957,0,1,1-45.957,45.957,45.979,45.979,0,0,1,45.957-45.957Z" transform="translate(-1730.091 -231.053)" fill="#ffe89b" fill-rule="evenodd"/>
      </g>
    </g>
    <g id="Group_2997" data-name="Group 2997">
      <g id="Group_2996" data-name="Group 2996" clip-path="url(#clip-path)">
        <path id="Path_71081" data-name="Path 71081" d="M1746.453,358.46l-1.7-1.834-18.76,17.4,1.7,1.834,18.76-17.4Z" transform="translate(-1724.93 -354.948)" fill="#fff09c" fill-rule="evenodd"/>
      </g>
    </g>
    <g id="Group_2999" data-name="Group 2999" transform="translate(2.55 3.261)">
      <g id="Group_2998" data-name="Group 2998" transform="translate(0 0)" clip-path="url(#clip-path-4)">
        <path id="Path_71083" data-name="Path 71083" d="M1758.866,218.942c20.36,0,36.889,16.286,36.889,36.346s-16.529,36.346-36.889,36.346-36.889-16.286-36.889-36.346,16.529-36.346,36.889-36.346Z" transform="translate(-1724.116 -224.039)" fill="#ffe89b" fill-rule="evenodd"/>
      </g>
    </g>
    <g id="Group_3001" data-name="Group 3001">
      <g id="Group_3000" data-name="Group 3000" clip-path="url(#clip-path)">
        <path id="Path_71086" data-name="Path 71086" d="M1661.9,283.983l-1.151-1.241-18.76,17.4,1.151,1.241,18.76-17.4Z" transform="translate(-1642.836 -282.741)" fill="#fff09c" fill-rule="evenodd"/>
      </g>
    </g>
    <path id="Path_71088" data-name="Path 71088" d="M1774.734,370.8a7.465,7.465,0,1,0,7.465,7.465,7.469,7.469,0,0,0-7.465-7.465Z" transform="translate(-1764.734 -368.262)" fill="#eb9f06" fill-rule="evenodd"/>
    <g id="Group_3003" data-name="Group 3003" transform="translate(2.535 2.535)">
      <g id="Group_3002" data-name="Group 3002" transform="translate(0 0)" clip-path="url(#clip-path-6)">
        <path id="Path_71089" data-name="Path 71089" d="M1755.816,218.942a33.84,33.84,0,1,1-33.839,33.84,33.855,33.855,0,0,1,33.839-33.84Z" transform="translate(-1722.937 -222.161)" fill="#e59d0c" fill-rule="evenodd"/>
        <path id="Path_71090" data-name="Path 71090" d="M1768.587,385.437a7.372,7.372,0,1,0,7.372,7.372,7.375,7.375,0,0,0-7.372-7.372Z" transform="translate(-1761.343 -385.127)" fill="#ffd111" fill-rule="evenodd"/>
      </g>
    </g>
    <g id="Group_3005" data-name="Group 3005" transform="translate(2.535 2.956)">
      <g id="Group_3004" data-name="Group 3004" transform="translate(0 0)" clip-path="url(#clip-path-7)">
        <path id="Path_71092" data-name="Path 71092" d="M1755.555,218.942a33.582,33.582,0,1,1-33.578,33.582,33.6,33.6,0,0,1,33.578-33.582Z" transform="translate(-1722.93 -222.444)" fill="#ffc402" fill-rule="evenodd"/>
      </g>
    </g>
  </g>
  <g id="Group_3007" data-name="Group 3007" transform="translate(3.111 6.145)">
    <path id="Path_71064" data-name="Path 71064" d="M385.51,59.14h2.1l1.539,1.327,1.547-1.327h2.1L390.2,61.377l2.591,2.237h-2.1l-1.547-1.327-1.539,1.327h-2.1l2.583-2.237Z" transform="translate(-385.2 -59.14)" fill="#d38200"/>
    <path id="Path_71065" data-name="Path 71065" d="M465.774,59.391a.9.9,0,0,1,.243.652v1.138a.8.8,0,0,1-.341.691,1.629,1.629,0,0,1-.938.251l1.5,1.492h-1.9l-1.507-1.46h-1.484v1.46h-1.531v-2.63h4.663V60.31h-4.663l-1.02-1.17h6.17A1.093,1.093,0,0,1,465.774,59.391Z" transform="translate(-452.769 -59.14)" fill="#d38200"/>
    <path id="Path_71066" data-name="Path 71066" d="M564.373,59.14l.9,1.34h-.517l-.244-.353h-.653l-.249.353h-.515l.472-.7h.717l-.118-.179h-.472l.139-.214-.212-.244Z" transform="translate(-563.094 -52.769)" fill="#d38200"/>
    <path id="Path_71067" data-name="Path 71067" d="M637.057,60.13v.35h-1.422a.436.436,0,0,1-.276-.079.257.257,0,0,1-.1-.213V59.14h1.8v.35H635.72v.639Z" transform="translate(-632.984 -52.769)" fill="#d38200"/>
    <path id="Path_71068" data-name="Path 71068" d="M699.238,59.14l.9,1.34h-.517l-.244-.353h-.653l-.249.353h-.515l.472-.7h.717l-.118-.179h-.472l.139-.214-.212-.244Z" transform="translate(-694.332 -52.769)" fill="#d38200"/>
    <path id="Path_71069" data-name="Path 71069" d="M762.6,59.681h.458v.447h1.067V59.49H762.6l-.306-.35h2.294v1.013a.286.286,0,0,1-.026.119.34.34,0,0,1-.074.1.359.359,0,0,1-.119.075.421.421,0,0,1-.158.028H762.6Z" transform="translate(-756.948 -52.769)" fill="#d38200"/>
    <path id="Path_71070" data-name="Path 71070" d="M842.8,59.49h-1.768l-.305-.35H842.8Zm-.449.141v.353h-1.319v-.353Zm.447.494v.355h-1.765v-.355Z" transform="translate(-833.25 -52.769)" fill="#d38200"/>
    <path id="Path_71071" data-name="Path 71071" d="M912.81,59.14l.7.6.7-.6h.362v1.34H914.1v-.693l-.6.519-.6-.519v.693h-.458v-.994l-.3-.346Z" transform="translate(-903.142 -52.769)" fill="#d38200"/>
    <path id="Path_71072" data-name="Path 71072" d="M995.311,60.48v-.595l-.86-.745h.628l.461.4.463-.4h.628l-.86.745v.595Z" transform="translate(-982.851 -52.769)" fill="#d38200"/>
  </g>
</svg>
