<svg xmlns="http://www.w3.org/2000/svg" width="579.748" height="315.846" viewBox="0 0 579.748 315.846">
  <g id="Group" style="isolation: isolate">
    <path id="Fill_488" data-name="Fill 488" d="M2.689,12.554C2.51,11.928,5.9,10.01,5.7,9.326Q4.359,4.663,3.018,0C3.2.624-.188,2.543.008,3.225Q1.348,7.889,2.689,12.554Z" transform="translate(18.26 267.915)" fill="#ff7273" style="isolation: isolate"/>
    <path id="Fill_490" data-name="Fill 490" d="M0,10.271C0,9.984,1.484,8.93,1.728,8.7c.286-.266,1.7-1.207,1.7-1.6V0C3.424.288,1.94,1.341,1.7,1.568,1.409,1.834,0,2.775,0,3.17Z" transform="translate(231.671 235.96)" fill="#ff7273" style="isolation: isolate"/>
    <path id="Fill_492" data-name="Fill 492" d="M4.4,7.988C4.442,8.028,8,4.511,7.989,4.5q-2.2-2.249-4.4-4.5C3.548-.038-.015,3.476,0,3.491Z" transform="translate(296.722 90.157)" fill="#ff7273" style="isolation: isolate"/>
    <path id="Fill_494" data-name="Fill 494" d="M6.973,7.989c.149.062,1.506-1.339,1.665-1.484a13.09,13.09,0,0,1,1.635-1.514A18.123,18.123,0,0,1,3.312,0C3.371.074-.1,2.869,0,2.995A18.119,18.119,0,0,0,6.973,7.989Z" transform="translate(479.316 216.559)" fill="#ff7273" style="isolation: isolate"/>
    <path id="Fill_496" data-name="Fill 496" d="M.279,9.071a9.481,9.481,0,0,0,2.885,4.624c-.03-.029,4.918-3.739,4.824-3.835A9.489,9.489,0,0,1,5.1,5.237,8.493,8.493,0,0,1,5.4,0C5.188.564,3.5,1.472,2.967,1.894,2.371,2.366.83,3.159.579,3.835A8.486,8.486,0,0,0,.279,9.071Z" transform="translate(42.226 51.356)" fill="#ff7273" style="isolation: isolate"/>
    <path id="Fill_500" data-name="Fill 500" d="M1.072,12.554c.032-.349,1.439-1.34,1.712-1.6.321-.306,1.639-1.18,1.681-1.637A22.825,22.825,0,0,0,3.4,0C3.608.617-.214,2.561.009,3.239A22.825,22.825,0,0,1,1.072,12.554Z" transform="translate(350.359 303.293)" fill="#ff7273" style="isolation: isolate"/>
    <path id="Fill_502" data-name="Fill 502" d="M.274,3.2A14.07,14.07,0,0,0,1.1,11.412c-.212-.516,3.693-2.619,3.455-3.2A14.079,14.079,0,0,1,3.728,0c-.075.4-1.42,1.282-1.744,1.579C1.613,1.922.371,2.69.272,3.193" transform="translate(0 149.226)" fill="#ffc764" style="isolation: isolate"/>
    <path id="Fill_504" data-name="Fill 504" d="M0,15.977c1.1-1.6,3.286-2.514,4.4-4.129A19.779,19.779,0,0,0,7.981,0c0,.36-1.915,1.758-2.235,2.042-.351.337-2.184,1.589-2.174,2.087A19.792,19.792,0,0,1,0,15.977Z" transform="translate(453.071 28.531)" fill="#ffc764" style="isolation: isolate"/>
    <path id="Fill_508" data-name="Fill 508" d="M0,11.412c.18-.494,1.326-1.215,1.724-1.589C2.165,9.409,3.208,8.78,3.417,8.2A18.621,18.621,0,0,0,4.483,0C4.5.242,2.974,1.385,2.758,1.587c-.248.239-1.724,1.275-1.692,1.622A18.621,18.621,0,0,1,0,11.412Z" transform="translate(393.726 217.7)" fill="#ffc764" style="isolation: isolate"/>
    <path id="Fill_510" data-name="Fill 510" d="M.346,3.855a12.643,12.643,0,0,0,1.043,8.7,26.684,26.684,0,0,1,2.175-1.908C3.766,10.461,5.8,8.885,5.7,8.7A12.627,12.627,0,0,1,4.657,0C4.54.5,2.9,1.534,2.48,1.907,2,2.335.484,3.23.342,3.86" transform="translate(182.598 6.847)" fill="#ffc764" style="isolation: isolate"/>
    <path id="Fill_518" data-name="Fill 518" d="M4.108,9.1A14.773,14.773,0,0,0,9.13,1.529C9.154,1.447,5.021.015,5.021,0A14.761,14.761,0,0,1,0,7.573a9.754,9.754,0,0,1,2.047.789c.268.1,1.826.924,2.061.743" transform="translate(159.774 275.903)" fill="#6487fe" style="isolation: isolate"/>
    <path id="Fill_520" data-name="Fill 520" d="M3.287,11.412A21.018,21.018,0,0,1,5.08,9.67C5.249,9.5,6.92,8.081,6.845,7.892L3.561,0A20.712,20.712,0,0,1,1.768,1.741C1.6,1.91-.074,3.33,0,3.52Z" transform="translate(343.512 5.706)" fill="#6487fe" style="isolation: isolate"/>
    <path id="Fill_522" data-name="Fill 522" d="M.046,3.148A7.628,7.628,0,0,0,5.9,11.412c.24.054,1.435-1.369,1.631-1.558S8.9,8.217,9.129,8.264A7.628,7.628,0,0,1,3.274,0c-.039.353-1.358,1.292-1.63,1.557C1.33,1.865.1,2.69.047,3.148" transform="translate(325.253 230.254)" fill="#6487fe" style="isolation: isolate"/>
    <path id="Fill_524" data-name="Fill 524" d="M3.9,3.9a2.282,2.282,0,1,0-1.614.669A2.282,2.282,0,0,0,3.9,3.9Z" transform="translate(46.791 107.001)" fill="#ffc764" style="isolation: isolate"/>
    <path id="Fill_526" data-name="Fill 526" d="M2.111.641,1.751.3a1.027,1.027,0,0,0-1.745.843,1.027,1.027,0,0,0,1.744.839l.359-.342a.791.791,0,0,0,0-1" transform="translate(207.699 95.588)" fill="#ffc764" style="isolation: isolate"/>
    <path id="Fill_528" data-name="Fill 528" d="M2.854,0c-3.806,0-3.806,6.847,0,6.847S6.66,0,2.854,0Z" transform="translate(394.868 78.745)" fill="#ffc764" style="isolation: isolate"/>
    <path id="Fill_530" data-name="Fill 530" d="M2.855,0c-3.807,0-3.807,6.847,0,6.847S6.663,0,2.855,0Z" transform="translate(508.989 9.996)" fill="#ffc764" style="isolation: isolate"/>
    <path id="Fill_532" data-name="Fill 532" d="M1.948,1.948a1.141,1.141,0,1,0-.807.334A1.141,1.141,0,0,0,1.948,1.948Z" transform="translate(569.476 215.418)" fill="#ffc764" style="isolation: isolate"/>
    <path id="Fill_534" data-name="Fill 534" d="M3.9,3.9a2.282,2.282,0,1,0-1.614.669A2.282,2.282,0,0,0,3.9,3.9Z" transform="translate(475.895 297.587)" fill="#ffc764" style="isolation: isolate"/>
    <path id="Fill_536" data-name="Fill 536" d="M2.085,0A2.577,2.577,0,0,0,.537.6a1.427,1.427,0,0,0,0,2.231,2.577,2.577,0,0,0,1.548.6,4.647,4.647,0,0,0,1.225-.25,1.484,1.484,0,0,0,0-2.924A4.7,4.7,0,0,0,2.085,0Z" transform="translate(275.038 285.033)" fill="#ffc764" style="isolation: isolate"/>
    <path id="Fill_538" data-name="Fill 538" d="M1.712,0c-2.282,0-2.282,4.565,0,4.565S3.994,0,1.712,0Z" transform="translate(46.791 211.994)" fill="#6487fe" style="isolation: isolate"/>
    <path id="Fill_540" data-name="Fill 540" d="M.045,1.532A1.414,1.414,0,0,0,.832,3.176l.114.066a1.671,1.671,0,0,0,1.506,0l.114-.066a1.419,1.419,0,0,0,.786-1.643L3.135.9A1.6,1.6,0,0,0,.256.9Z" transform="translate(138.106 14.564)" fill="#6487fe" style="isolation: isolate"/>
    <path id="Fill_542" data-name="Fill 542" d="M3.9,3.9a2.282,2.282,0,1,0-1.614.669A2.282,2.282,0,0,0,3.9,3.9Z" transform="translate(527.251 113.848)" fill="#6487fe" style="isolation: isolate"/>
    <path id="Fill_544" data-name="Fill 544" d="M1.948,1.948a1.141,1.141,0,1,0-.807.334A1.141,1.141,0,0,0,1.948,1.948Z" transform="translate(424.54 275.903)" fill="#6487fe" style="isolation: isolate"/>
    <path id="Fill_550" data-name="Fill 550" d="M1.142,0c-1.522,0-1.522,4.565,0,4.565S2.664,0,1.142,0Z" transform="translate(270.473 9.13)" fill="#ff7273" style="isolation: isolate"/>
    <path id="Fill_552" data-name="Fill 552" d="M2.261,1.286A1.685,1.685,0,0,0,1.849.278a1.042,1.042,0,0,0-1.417,0A1.7,1.7,0,0,0,.02,1.287c-.28,1.323,2.527,1.333,2.243,0" transform="translate(131.244 100.154)" fill="#ff7273" style="isolation: isolate"/>
    <path id="Fill_554" data-name="Fill 554" d="M.65.165A1.4,1.4,0,0,0,.181.542a1.084,1.084,0,0,0,0,1.2,1.406,1.406,0,0,0,1.052.523c1.392.269,1.4-2.518,0-2.246A1.4,1.4,0,0,0,.65.165Z" transform="translate(57.062 14.561)" fill="#ff7273" style="isolation: isolate"/>
    <path id="Fill_556" data-name="Fill 556" d="M.974.974a.571.571,0,1,0-.4.167A.571.571,0,0,0,.974.974Z" transform="translate(93.582 302.152)" fill="#ff7273" style="isolation: isolate"/>
    <path id="Fill_560" data-name="Fill 560" d="M1.948,1.948a1.141,1.141,0,1,0-.807.334A1.141,1.141,0,0,0,1.948,1.948Z" transform="translate(459.918 178.898)" fill="#ff7273" style="isolation: isolate"/>
    <path id="Fill_564" data-name="Fill 564" d="M1.948,1.948a1.141,1.141,0,1,0-.807.334A1.141,1.141,0,0,0,1.948,1.948Z" transform="translate(539.804 302.152)" fill="#ff7273" style="isolation: isolate"/>
    <path id="Fill_566" data-name="Fill 566" d="M.93.226a1.615,1.615,0,0,0,0,2.925l.625.193A1.557,1.557,0,0,0,3.424,1.687,1.557,1.557,0,0,0,1.556.033Z" transform="translate(561.488 192.618)" fill="#ff7273" style="isolation: isolate"/>
    <path id="Fill_568" data-name="Fill 568" d="M2.922,2.922a1.712,1.712,0,1,0-1.21.5A1.712,1.712,0,0,0,2.922,2.922Z" transform="translate(3.425 222.265)" fill="#ff7273" style="isolation: isolate"/>
    <path id="Fill_570" data-name="Fill 570" d="M.434.434a.254.254,0,1,0-.18.075A.254.254,0,0,0,.434.434Z" transform="translate(11.729 87.916)" fill="#ffc764" style="isolation: isolate"/>
    <path id="Fill_572" data-name="Fill 572" d="M.39.39A.228.228,0,1,0,.228.456.228.228,0,0,0,.39.39Z" transform="translate(246.85 106.202)" fill="#ffc764" style="isolation: isolate"/>
    <path id="Fill_574" data-name="Fill 574" d="M.5.5A.3.3,0,1,0,.3.591.3.3,0,0,0,.5.5Z" transform="translate(395.143 0)" fill="#ffc764" style="isolation: isolate"/>
    <path id="Fill_577" data-name="Fill 577" d="M.567.567a.332.332,0,1,0-.235.1A.332.332,0,0,0,.567.567Z" transform="translate(489.829 63.872)" fill="#ffc764" style="isolation: isolate"/>
    <path id="Fill_579" data-name="Fill 579" d="M.779.779A.456.456,0,1,0,.456.913.456.456,0,0,0,.779.779Z" transform="translate(535.353 253.193)" fill="#ffc764" style="isolation: isolate"/>
    <path id="Fill_498" data-name="Fill 498" d="M1.106,6.687a7.116,7.116,0,0,1-.793,3.584C.587,9.729,1.6,9.117,2.054,8.694c.494-.456,1.4-1.009,1.712-1.61A7.113,7.113,0,0,0,4.558,3.5,7.113,7.113,0,0,0,3.459,0C3.633.278-.2,2.853.008,3.185A7.116,7.116,0,0,1,1.106,6.687Z" transform="translate(571.759 45.374)" fill="#ff7273" style="isolation: isolate"/>
    <path id="Fill_516" data-name="Fill 516" d="M3.864,11.412c.056.058,2.973-3.235,2.984-3.225A15.333,15.333,0,0,1,2.984,0c.032.2-1.336,1.412-1.5,1.6C1.284,1.8-.043,2.922,0,3.223A15.315,15.315,0,0,0,3.864,11.412Z" transform="translate(572.899 264.491)" fill="#6487fe" style="isolation: isolate"/>
  </g>
</svg>
