<svg xmlns="http://www.w3.org/2000/svg" xmlns:xlink="http://www.w3.org/1999/xlink" width="18.214" height="17.607" viewBox="0 0 18.214 17.607">
  <defs>
    <clipPath id="clip-path">
      <rect id="Rectangle_3726" data-name="Rectangle 3726" width="18.214" height="17.607" fill="none"/>
    </clipPath>
  </defs>
  <g id="Group_12928" data-name="Group 12928" clip-path="url(#clip-path)">
    <path id="Path_102547" data-name="Path 102547" d="M4,11.477a3.235,3.235,0,0,1-.422-.119,4.194,4.194,0,0,1-.405-.164,4.538,4.538,0,0,1-.762-.45A4.3,4.3,0,0,1,1.223,9.42,4.016,4.016,0,0,1,.7,7.717a4.312,4.312,0,0,1,.032-.878,3.746,3.746,0,0,1,.089-.426A3.156,3.156,0,0,1,.959,6L1,6.428c.012.14.029.278.047.415a7.506,7.506,0,0,0,.147.8,5.534,5.534,0,0,0,.577,1.47,6.2,6.2,0,0,0,.97,1.263c.189.194.391.38.6.562.105.09.215.179.325.269Z" transform="translate(0.269 2.328)" fill="#42ade2"/>
    <path id="Path_102548" data-name="Path 102548" d="M4.19,11.395a2.2,2.2,0,0,1-.321.114,2.872,2.872,0,0,1-.332.072,3.194,3.194,0,0,1-2.025-.337,3,3,0,0,1-1.037-.93,2.915,2.915,0,0,1-.319-.6,3.209,3.209,0,0,1-.1-.322A2.188,2.188,0,0,1,0,9.059c.076.083.148.168.219.25s.142.161.214.239c.143.155.287.3.437.439a4.849,4.849,0,0,0,.959.69,5.392,5.392,0,0,0,1.107.441c.2.057.4.1.608.148.1.022.21.042.318.064s.216.04.328.065" transform="translate(0 3.513)" fill="#42ade2"/>
    <path id="Path_102549" data-name="Path 102549" d="M7.952.113a3.286,3.286,0,0,1,.427.143,4.3,4.3,0,0,1,.407.186,4.7,4.7,0,0,1,.758.493A4.3,4.3,0,0,1,10.7,2.329a3.937,3.937,0,0,1,.434,1.735,4.1,4.1,0,0,1-.083.877,4.215,4.215,0,0,1-.114.423,3.3,3.3,0,0,1-.164.405l-.015-.429c-.007-.142-.014-.282-.025-.42a7.346,7.346,0,0,0-.105-.81A5.5,5.5,0,0,0,10.115,2.6a6.319,6.319,0,0,0-.923-1.32c-.186-.2-.383-.4-.591-.6C8.5.592,8.392.5,8.282.4Z" transform="translate(3.083 0.045)" fill="#42ade2"/>
    <path id="Path_102550" data-name="Path 102550" d="M9.87.012a2.363,2.363,0,0,1,.314.115,2.6,2.6,0,0,1,.3.151,3.187,3.187,0,0,1,.538.4,2.975,2.975,0,0,1,.765,1.1,2.736,2.736,0,0,1,.026,1.959,2.5,2.5,0,0,1-.133.3,2.051,2.051,0,0,1-.172.278c0-.108,0-.214,0-.318s0-.207-.007-.308c-.006-.2-.019-.4-.043-.591A4.414,4.414,0,0,0,11.179,2,5,5,0,0,0,10.632.99C10.521.828,10.4.667,10.271.5c-.064-.08-.129-.16-.2-.241S9.938.1,9.87.012" transform="translate(3.827 0.005)" fill="#42ade2"/>
    <path id="Path_102551" data-name="Path 102551" d="M1.938,3.3A1.184,1.184,0,0,0,1.4,4.9l3.826,8,2.12-1.012-3.826-8A1.186,1.186,0,0,0,1.938,3.3" transform="translate(0.495 1.237)" fill="#ffdd67"/>
    <path id="Path_102552" data-name="Path 102552" d="M10.253,10.9,12.51,9.825,8.146.7A1.252,1.252,0,0,0,6.485.121l-.007,0A1.254,1.254,0,0,0,5.9,1.8Z" transform="translate(2.238 0.001)" fill="#ffdd67"/>
    <path id="Path_102553" data-name="Path 102553" d="M6.339.121l-.007,0a1.271,1.271,0,0,0-.187.114A1.252,1.252,0,0,1,7.6.9l4.364,9.12.4-.192L8,.7A1.25,1.25,0,0,0,6.339.121" transform="translate(2.383 0)" fill="#eba352"/>
    <path id="Path_102554" data-name="Path 102554" d="M6.932,12.575l2.324-1.11L4.8,2.159a1.3,1.3,0,0,0-1.725-.623h0a1.3,1.3,0,0,0-.6,1.732Z" transform="translate(0.91 0.548)" fill="#ffdd67"/>
    <path id="Path_102555" data-name="Path 102555" d="M2.928,1.536h0a1.3,1.3,0,0,0-.189.117,1.3,1.3,0,0,1,1.515.7L7.022,8.141l.681.393L4.651,2.159a1.3,1.3,0,0,0-1.724-.623" transform="translate(1.06 0.548)" fill="#eba352"/>
    <path id="Path_102556" data-name="Path 102556" d="M8.345,11.23l2.326-1.11L6.218.814A1.3,1.3,0,0,0,4.494.191l0,0a1.3,1.3,0,0,0-.6,1.732Z" transform="translate(1.459 0.027)" fill="#ffdd67"/>
    <path id="Path_102557" data-name="Path 102557" d="M4.344.192h0a1.223,1.223,0,0,0-.189.115,1.3,1.3,0,0,1,1.514.7L8.8,7.552l.681.393L6.067.814A1.3,1.3,0,0,0,4.344.192" transform="translate(1.609 0.027)" fill="#eba352"/>
    <path id="Path_102558" data-name="Path 102558" d="M1.807,3.3a1.251,1.251,0,0,0-.192.115,1.2,1.2,0,0,1,1.372.663L5.262,8.837l.681.39L3.39,3.891A1.186,1.186,0,0,0,1.807,3.3" transform="translate(0.626 1.237)" fill="#eba352"/>
    <path id="Path_102559" data-name="Path 102559" d="M16.527,2.692c-.823-.631-2.169.062-2.83,2.256-.462,1.533-.509,1.965-1.486,2.43l-.536-1.12S3.065,10.418,3.39,11.1c0,0,1.042,3.211,2.788,4.71,2.6,2.231,8.7-.161,8.974-5.937.161-3.407,2.276-6.485,1.375-7.177" transform="translate(1.311 0.958)" fill="#ffdd67"/>
    <path id="Path_102560" data-name="Path 102560" d="M15.513,2.69A1.068,1.068,0,0,0,15,2.476a.836.836,0,0,1,.114.074c.9.692-.025,2.315-.552,3.764A9.154,9.154,0,0,0,13.839,9.8,6.431,6.431,0,0,1,6,16.317c2.973,1.259,8.5-1.138,8.244-6.371a9.061,9.061,0,0,1,.719-3.492c.518-1.453,1.453-3.072.552-3.765" transform="translate(2.325 0.961)" fill="#eba352"/>
    <path id="Path_102561" data-name="Path 102561" d="M10.9,5.9C9.02,6.1,6.235,8.8,8.188,11.755,6.768,8.79,9.1,6.768,10.58,6.064c.175-.085.315-.167.315-.167" transform="translate(2.917 2.287)" fill="#eba352"/>
  </g>
</svg>
