<svg id="Group_12803" data-name="Group 12803" xmlns="http://www.w3.org/2000/svg" width="38.383" height="44.983" viewBox="0 0 38.383 44.983">
  <path id="Path_102523" data-name="Path 102523" d="M14.088,6.892l-.811.019-.043-1.73L1.877,5.453l.043,1.73L1.107,7.2a.811.811,0,1,0,.039,1.621l12.982-.31a.812.812,0,1,0-.039-1.624Z" transform="translate(13.402 29.92)" fill="#fff"/>
  <path id="Path_102524" data-name="Path 102524" d="M1.481.443,1.36.216l-.1.222a.808.808,0,0,1-.173.248.8.8,0,0,1-.2.139A.853.853,0,0,1,.725.886C.683.9.657.9.655.9L.4.947l.179.169a.792.792,0,0,1,.129.15.813.813,0,0,1,.132.37.805.805,0,0,1-.006.2L.8,2.084l.225-.125a.821.821,0,0,1,.562-.082.793.793,0,0,1,.186.065l.232.114L1.96,1.8a.814.814,0,0,1-.014-.195.8.8,0,0,1,.226-.521L2.352.9,2.1.867a.82.82,0,0,1-.19-.048.819.819,0,0,1-.171-.09A.813.813,0,0,1,1.592.6.794.794,0,0,1,1.481.443Z" transform="translate(19.166 16.959)" fill="#fff"/>
  <path id="Path_102525" data-name="Path 102525" d="M33.451,12.208l-4.128.1q0-.1,0-.2t0-.2q0-.1,0-.2t0-.205a.813.813,0,0,0-.83-.791l-16.228.388a.812.812,0,0,0-.793.832q0,.1.007.2t.01.2q.005.1.011.2t.011.2l-4.13.1a.809.809,0,0,0-.791.83l.049,2.056A8.3,8.3,0,0,0,7.349,18.9a8.483,8.483,0,0,0,1.8,2.594,8.607,8.607,0,0,0,5.788,2.477,10.3,10.3,0,0,0,.754.881,8.73,8.73,0,0,0,.814.748,7.528,7.528,0,0,0,.872.608,6.7,6.7,0,0,0,.926.46,11.375,11.375,0,0,1-.362,2.562,12.111,12.111,0,0,1-.75,2.08,12.423,12.423,0,0,1-.848,1.527,10.456,10.456,0,0,1-.656.9l10.464-.251a10.317,10.317,0,0,1-.7-.865,12.249,12.249,0,0,1-.92-1.48,12.035,12.035,0,0,1-.848-2.042A11.421,11.421,0,0,1,23.2,26.55a6.708,6.708,0,0,0,.9-.5,7.526,7.526,0,0,0,.842-.649,8.7,8.7,0,0,0,.778-.786,10.243,10.243,0,0,0,.71-.916A8.605,8.605,0,0,0,32.1,20.944a8.483,8.483,0,0,0,1.673-2.677,8.313,8.313,0,0,0,.561-3.213L34.281,13a.809.809,0,0,0-.83-.791ZM8.258,15.677,8.23,14.435l3.4-.081q.118,1.157.32,2.237t.481,2.072a19.746,19.746,0,0,0,.633,1.889,16.163,16.163,0,0,0,.776,1.687,6.956,6.956,0,0,1-2.16-.825,7.043,7.043,0,0,1-1.755-1.461A6.862,6.862,0,0,1,8.73,18,6.706,6.706,0,0,1,8.258,15.677ZM23.813,17.82,22.8,18.869l.274,1.435a.812.812,0,0,1,.012.226.805.805,0,0,1-.316.571.818.818,0,0,1-.2.111.807.807,0,0,1-.651-.027l-1.312-.64-1.28.7a.834.834,0,0,1-.212.08.815.815,0,0,1-.438-.022.81.81,0,0,1-.544-.882l.2-1.447-1.064-1a.814.814,0,0,1-.257-.606.811.811,0,0,1,.128-.424.817.817,0,0,1,.543-.363l1.438-.251.623-1.321a.71.71,0,0,1,.3-.316.915.915,0,0,1,.843-.02.712.712,0,0,1,.312.3l.683,1.29,1.449.182a.815.815,0,0,1,.561.336.8.8,0,0,1,.1.2.807.807,0,0,1-.182.834Zm8.893-2.727a6.7,6.7,0,0,1-.36,2.338,6.856,6.856,0,0,1-1.1,2.013,7.04,7.04,0,0,1-1.683,1.542,6.956,6.956,0,0,1-2.118.928,16.071,16.071,0,0,0,.7-1.723,19.68,19.68,0,0,0,.542-1.917q.231-1,.381-2.093t.212-2.25l3.4-.081Z" transform="translate(0 0)" fill="#fff"/>
</svg>
