<svg xmlns="http://www.w3.org/2000/svg" width="112" height="111" viewBox="0 0 112 111">
  <g id="Group_12938" data-name="Group 12938" transform="translate(-4 -6.789)">
    <path id="Vector_3" data-name="Vector 3" d="M108,53.5C108,83.047,83.823,107,54,107S0,83.047,0,53.5,24.177,0,54,0,108,23.953,108,53.5Z" transform="translate(6 10.789)" fill="#fafafa"/>
    <path id="Vector_2" data-name="Vector 2" d="M56,3.964C27.281,3.964,4,27.038,4,55.5s23.281,51.536,52,51.536S108,83.962,108,55.5,84.719,3.964,56,3.964ZM0,55.5C0,24.848,25.072,0,56,0s56,24.848,56,55.5S86.928,111,56,111,0,86.152,0,55.5Z" transform="translate(4 6.789)" fill="#e2e2e2"/>
  </g>
</svg>
