<svg xmlns="http://www.w3.org/2000/svg" width="55.087" height="45.93" viewBox="0 0 55.087 45.93">
  <g id="Icon" transform="translate(2 2.132)">
    <path id="Path" d="M37.154,13.933V9.289A9.289,9.289,0,0,0,27.866,0H9.289A9.289,9.289,0,0,0,0,9.289v4.644" transform="translate(0 27.865)" fill="none" stroke="#0debc4" stroke-linecap="round" stroke-linejoin="round" stroke-miterlimit="10" stroke-width="4"/>
    <circle id="Oval" cx="9.5" cy="9.5" r="9.5" transform="translate(10 0.001)" fill="none" stroke="#0debc4" stroke-linecap="round" stroke-linejoin="round" stroke-miterlimit="10" stroke-width="4"/>
    <path id="Path-2" data-name="Path" d="M6.966,13.631V8.987A9.289,9.289,0,0,0,0,0" transform="translate(44.12 28.167)" fill="none" stroke="#0debc4" stroke-linecap="round" stroke-linejoin="round" stroke-miterlimit="10" stroke-width="4"/>
    <path id="Path-3" data-name="Path" d="M0,0A9.289,9.289,0,0,1,6.985,9,9.289,9.289,0,0,1,0,18" transform="translate(34.832 0.301)" fill="none" stroke="#0debc4" stroke-linecap="round" stroke-linejoin="round" stroke-miterlimit="10" stroke-width="4"/>
  </g>
</svg>
