<svg xmlns="http://www.w3.org/2000/svg" width="16.381" height="16.737" viewBox="0 0 16.381 16.737">
  <g id="noun-coin-1078705" transform="translate(-4 -3)">
    <g id="Group_12888" data-name="Group 12888" transform="translate(4 3)">
      <path id="Path_102541" data-name="Path 102541" d="M10.532,972.1a7.533,7.533,0,0,0,1.231-.141l-.871-.591a7.742,7.742,0,0,1-.978.248Zm-.6-.011-.506-.4c-.258.031-.52.045-.787.051A3.813,3.813,0,0,0,9.937,972.088Zm2.3-.242a7.4,7.4,0,0,0,1.152-.416l-1.13-.659a7.961,7.961,0,0,1-.95.445ZM8.5,971.385c3.533-.006,6.271-2.406,7.611-5.583l-2.029.005c-.176,0-.177-.184-.18-.18,0-1.26,0-2.526,0-3.788H10.128a.187.187,0,0,1-.18-.18l-.006-2.516a.187.187,0,0,1,.18-.18h3.783v-3.14a6.857,6.857,0,0,0-2.468-.281c-3.031.5-6.711,2.992-7.381,8.819A7.875,7.875,0,0,0,5,969.28a3.9,3.9,0,0,0,3.5,2.1Zm5.29-.146a7.908,7.908,0,0,0,.939-.591l-1.225-.709a8.488,8.488,0,0,1-.877.625Zm1.248-.827a8.773,8.773,0,0,0,.86-.788l-1.293-.737a9.443,9.443,0,0,1-.809.8Zm1.113-1.064a9.817,9.817,0,0,0,.871-1.142l-1.349-.765a10.391,10.391,0,0,1-.826,1.165ZM17.2,967.9a10.85,10.85,0,0,0,.585-1.1l-1.377-.782a11.257,11.257,0,0,1-.557,1.114Zm.725-1.435a11.429,11.429,0,0,0,.416-1.176l-1.422-.726c-.045.158-.094.317-.146.473v.591a.183.183,0,0,1-.067.141Zm-3.671-1.013,2.159-.006v-3.776a.187.187,0,0,1,.18-.18h3.783l-.011-2.161H16.6a.187.187,0,0,1-.18-.18v-3.782l-2.159.011v3.771a.187.187,0,0,1-.18.18H10.3l.006,2.155h3.772a.187.187,0,0,1,.18.18q0,1.894,0,3.787Zm4.188-.518c.111-.366.2-.721.275-1.064l-1.428-.732c-.073.346-.162.7-.27,1.069Zm-1.67-1.165a11.976,11.976,0,0,0,.36-1.919h-.36ZM18.8,963.5a10.453,10.453,0,0,0,.169-1.39l-.669-.265h-.809c-.027.3-.061.6-.118.917Zm-2.018-4.536h.129c-.039-.128-.083-.251-.129-.371Zm.495,0H18.43a4.863,4.863,0,0,0-.236-.445L17,958.188A5.849,5.849,0,0,1,17.278,958.964Zm.585-.917a4.524,4.524,0,0,0-1.079-.979v.681Z" transform="translate(-4 -955.362)" fill="#252c4a"/>
    </g>
  </g>
</svg>
