<svg xmlns="http://www.w3.org/2000/svg" width="43.575" height="44.855" viewBox="0 0 43.575 44.855">
  <g id="Group_12887" data-name="Group 12887" transform="translate(-88.257 -232.971)">
    <g id="noun-speech-balloon-1557374" transform="translate(101.967 234.273) rotate(22)">
      <path id="Path_102539" data-name="Path 102539" d="M15.42,30.807A15.087,15.087,0,0,1,9.436,29.59L5,32.221l.625-4.932a15.391,15.391,0,1,1,9.8,3.518Z" fill="#252c4a" stroke="#3f4768" stroke-width="2"/>
    </g>
    <g id="noun-information-5900398" transform="translate(106.144 244.535)">
      <path id="Path_102540" data-name="Path 102540" d="M35.884,10.286a5.206,5.206,0,0,1-.368,2.937h0a.184.184,0,0,1-.009.022,20.355,20.355,0,0,0-.707,1.974c-.322,1.016-.633,2.11-.774,2.7a4.738,4.738,0,0,0-.161,1.646.952.952,0,0,0,.253.589.753.753,0,0,0,.558.159,3.321,3.321,0,0,0,1.177-.34.308.308,0,0,1,.1-.033.853.853,0,0,1,.637.073c.273.2.24.485-.041.8a3.52,3.52,0,0,1-.758.6c-1.165.725-3.286,1.458-5.009.67a2.6,2.6,0,0,1-1.562-1.82,5.206,5.206,0,0,1,.368-2.936h0a.185.185,0,0,1,.01-.022,17.159,17.159,0,0,0,.732-2.176c.136-.466.27-.925.4-1.311a7.645,7.645,0,0,0,.525-2.654,1.2,1.2,0,0,0-.223-.72.676.676,0,0,0-.536-.209,3.129,3.129,0,0,0-1.246.342.311.311,0,0,1-.1.033.853.853,0,0,1-.637-.073c-.273-.2-.24-.485.041-.8a3.523,3.523,0,0,1,.758-.6c1.165-.725,3.286-1.457,5.01-.67a2.6,2.6,0,0,1,1.562,1.82ZM34.383,2.6a2.391,2.391,0,1,1-1.691.7A2.391,2.391,0,0,1,34.383,2.6Z" transform="translate(-28.325 -2.6)" fill="#0debc4" fill-rule="evenodd"/>
    </g>
  </g>
</svg>
