<svg xmlns="http://www.w3.org/2000/svg" width="194.496" height="16.151" viewBox="0 0 194.496 16.151">
  <g id="Group_9551" data-name="Group 9551" transform="translate(0)">
    <path id="Path_71064" data-name="Path 71064" d="M385.51,59.14h5.71l4.191,4.789,4.213-4.789h5.71l-7.057,8.075,7.057,8.076h-5.71L395.411,70.5l-4.191,4.789h-5.71l7.036-8.076Z" transform="translate(-385.51 -59.14)" fill="#fff"/>
    <path id="Path_71065" data-name="Path 71065" d="M477.806,60.046a3.893,3.893,0,0,1,.663,2.352v4.109a3.264,3.264,0,0,1-.93,2.494,3.671,3.671,0,0,1-2.556.907l4.085,5.384h-5.176l-4.106-5.27h-4.042v5.27h-4.17V65.8h12.7V63.361h-12.7L458.8,59.14H475.6A2.547,2.547,0,0,1,477.806,60.046Z" transform="translate(-437.774 -59.14)" fill="#fff"/>
    <path id="Path_71066" data-name="Path 71066" d="M574.727,59.14l8.191,16.151h-4.7l-2.224-4.251h-5.945l-2.267,4.251h-4.683l4.3-8.472h6.523l-1.069-2.154h-4.3l1.262-2.579-1.924-2.947Z" transform="translate(-512.155 -59.14)" fill="#fff"/>
    <path id="Path_71067" data-name="Path 71067" d="M651.619,71.069v4.222H638.681a3.314,3.314,0,0,1-2.513-.949,3.553,3.553,0,0,1-.909-2.565V59.14h16.36v4.221H639.451v7.707Z" transform="translate(-563.62 -59.14)" fill="#fff"/>
    <path id="Path_71068" data-name="Path 71068" d="M709.592,59.14l8.191,16.151h-4.7l-2.224-4.251h-5.945l-2.267,4.251h-4.683l4.3-8.472h6.523l-1.069-2.154h-4.3l1.262-2.579-1.925-2.947Z" transform="translate(-608.335 -59.14)" fill="#fff"/>
    <path id="Path_71069" data-name="Path 71069" d="M765.077,65.657h4.17V71.04h9.709V63.361H765.077L762.3,59.14h20.872V71.352a4.424,4.424,0,0,1-.235,1.431,4.318,4.318,0,0,1-.674,1.261,3.311,3.311,0,0,1-1.08.907,3.014,3.014,0,0,1-1.433.34h-14.67Z" transform="translate(-654.217 -59.14)" fill="#fff"/>
    <path id="Path_71070" data-name="Path 71070" d="M859.588,63.361H843.506l-2.78-4.221h18.862Zm-4.084,1.7v4.251h-12V65.062Zm4.063,5.951v4.279h-16.06V71.012Z" transform="translate(-710.149 -59.14)" fill="#fff"/>
    <path id="Path_71071" data-name="Path 71071" d="M918.178,59.14l6.33,7.282,6.33-7.282h3.293V75.291h-4.192V66.932l-5.432,6.262-5.453-6.262v8.359h-4.17V63.305l-2.737-4.165Z" transform="translate(-761.084 -59.14)" fill="#fff"/>
    <path id="Path_71072" data-name="Path 71072" d="M1002.278,75.291V68.122l-7.827-8.982h5.71l4.191,4.789,4.213-4.789h5.71l-7.827,8.982v7.169Z" transform="translate(-819.779 -59.14)" fill="#fff"/>
  </g>
</svg>
