<svg xmlns="http://www.w3.org/2000/svg" width="14.408" height="13.75" viewBox="0 0 14.408 13.75">
  <path id="Path_102542" data-name="Path 102542" d="M33.11,43.42l1.76,3.57a.61.61,0,0,0,.45.33l3.94.57a.6.6,0,0,1,.33,1.02l-2.85,2.78a.588.588,0,0,0-.17.53l.67,3.92a.6.6,0,0,1-.87.63l-3.52-1.85a.614.614,0,0,0-.56,0l-3.52,1.85a.6.6,0,0,1-.87-.63l.67-3.92a.616.616,0,0,0-.17-.53l-2.85-2.78a.6.6,0,0,1,.33-1.02l3.94-.57a.61.61,0,0,0,.45-.33l1.76-3.57a.6.6,0,0,1,1.07,0Z" transform="translate(-25.366 -43.09)" fill="#e3e3e3"/>
</svg>
