<svg xmlns="http://www.w3.org/2000/svg" xmlns:xlink="http://www.w3.org/1999/xlink" width="402" height="150" viewBox="0 0 402 150">
  <defs>
    <linearGradient id="linear-gradient" x1="0.056" y1="0.5" x2="1.017" y2="0.5" gradientUnits="objectBoundingBox">
      <stop offset="0" stop-color="#46a0ae"/>
      <stop offset="1" stop-color="#00ffcb"/>
    </linearGradient>
    <filter id="Bg" x="0" y="0" width="402" height="150" filterUnits="userSpaceOnUse">
      <feOffset dy="3" input="SourceAlpha"/>
      <feGaussianBlur stdDeviation="3" result="blur"/>
      <feFlood flood-opacity="0.161"/>
      <feComposite operator="in" in2="blur"/>
      <feComposite in="SourceGraphic"/>
    </filter>
  </defs>
  <g id="Group_12938" data-name="Group 12938" transform="translate(-18 -159)">
    <g transform="matrix(1, 0, 0, 1, 18, 159)" filter="url(#Bg)">
      <rect id="Bg-2" data-name="Bg" width="384" height="132" rx="23" transform="translate(9 6)" fill="url(#linear-gradient)"/>
    </g>
    <g id="Group_12803" data-name="Group 12803" transform="translate(329.643 163.944) rotate(16)" opacity="0.116">
      <path id="Path_102523" data-name="Path 102523" d="M781.18,54.624,779.243,56l-2.937-4.13L749.181,71.126l2.937,4.13-1.936,1.381a2.374,2.374,0,1,0,2.749,3.872l31-22.008a2.379,2.379,0,0,0-2.755-3.879Z" transform="translate(-692.095 15.299)" fill="#171d30"/>
      <path id="Path_102524" data-name="Path 102524" d="M748.156,47.031l-.665-.355.11.71a2.4,2.4,0,0,1-.7,2.11l-.542.523.71.116a2.371,2.371,0,0,1,1.8,1.336l.323.652.342-.671a2.386,2.386,0,0,1,1.788-1.265l.748-.1-.529-.542a2.358,2.358,0,0,1-.658-2.085l.129-.749-.671.342A2.38,2.38,0,0,1,748.156,47.031Z" transform="translate(-707.463 -13.018)" fill="#171d30"/>
      <path id="Path_102525" data-name="Path 102525" d="M803.6,41.9l-9.862,7c-.439-.652-.872-1.31-1.336-1.968a2.382,2.382,0,0,0-3.311-.561L750.34,73.88a2.378,2.378,0,0,0-.562,3.317c.465.652.942,1.271,1.42,1.9l-9.862,7a2.37,2.37,0,0,0-.561,3.311l3.485,4.911a24.98,24.98,0,0,0,33.664,6.441,23.809,23.809,0,0,0,12.585,1.033,35.187,35.187,0,0,1,5.228,21.453l24.99-17.742A34.933,34.933,0,0,1,802.2,93.5a23.765,23.765,0,0,0,3.175-12.224A24.981,24.981,0,0,0,810.4,47.367l-3.485-4.9A2.37,2.37,0,0,0,803.6,41.9ZM748.133,91.57l-2.1-2.969,8.113-5.757c5.815,6.97,12.095,12.249,18.277,15.522A20.269,20.269,0,0,1,748.133,91.57ZM789.4,71.3l-.749,4.208,3.014,3.033a2.375,2.375,0,0,1-1.356,4.027l-4.234.594-1.956,3.8a2.373,2.373,0,0,1-4.246-.045L778,83.077l-4.221-.684a2.378,2.378,0,0,1-1.272-4.06l3.079-2.962-.652-4.227a2.474,2.474,0,0,1,3.465-2.459l3.77,2.014,3.814-1.93A2.378,2.378,0,0,1,789.4,71.3Zm17.122-21.182a20.262,20.262,0,0,1-1.594,25.164c-1.046-6.919-3.963-14.586-8.629-22.376l8.119-5.763Z" transform="translate(-740.335 -41.461)" fill="#171d30"/>
    </g>
  </g>
</svg>
