<svg xmlns="http://www.w3.org/2000/svg" width="27.517" height="28.488" viewBox="0 0 27.517 28.488">
  <g id="Group_12885" data-name="Group 12885" transform="translate(-88.257 -232.971)">
    <g id="noun-speech-balloon-1557374" transform="translate(97.197 234.273) rotate(22)">
      <path id="Path_102539" data-name="Path 102539" d="M12.526,19.632A9.125,9.125,0,0,1,8.907,18.9L6.222,20.487,6.6,17.5a9.309,9.309,0,1,1,5.926,2.128Z" transform="translate(-3.201 -1)" fill="#252c4a" stroke="#3f4768" stroke-width="2"/>
    </g>
    <g id="noun-information-5900398" transform="translate(99.723 240.479)">
      <path id="Path_102540" data-name="Path 102540" d="M32.9,7.249a3.148,3.148,0,0,1-.223,1.776h0l-.006.013a12.311,12.311,0,0,0-.428,1.194c-.195.615-.383,1.276-.468,1.633a2.865,2.865,0,0,0-.1,1,.576.576,0,0,0,.153.356.456.456,0,0,0,.338.1,2.009,2.009,0,0,0,.712-.206.187.187,0,0,1,.058-.02.516.516,0,0,1,.385.044c.165.118.145.293-.025.486a2.129,2.129,0,0,1-.458.364,3.444,3.444,0,0,1-3.03.405,1.574,1.574,0,0,1-.945-1.1,3.149,3.149,0,0,1,.223-1.776h0l.006-.013a10.378,10.378,0,0,0,.442-1.316c.082-.282.163-.56.243-.793a4.624,4.624,0,0,0,.318-1.6.728.728,0,0,0-.135-.436.409.409,0,0,0-.324-.127,1.892,1.892,0,0,0-.753.207.188.188,0,0,1-.058.02.516.516,0,0,1-.385-.044c-.165-.118-.145-.293.025-.486a2.131,2.131,0,0,1,.458-.364,3.445,3.445,0,0,1,3.03-.405,1.573,1.573,0,0,1,.945,1.1ZM31.989,2.6a1.446,1.446,0,1,1-1.023.424A1.446,1.446,0,0,1,31.989,2.6Z" transform="translate(-28.325 -2.6)" fill="#0debc4" fill-rule="evenodd"/>
    </g>
  </g>
</svg>
