<svg xmlns="http://www.w3.org/2000/svg" width="32" height="32" viewBox="0 0 32 32">
  <g id="cancel_red" transform="translate(0.303 0.447)">
    <circle id="Ellipse_1" data-name="Ellipse 1" cx="16" cy="16" r="16" transform="translate(-0.303 -0.447)" fill="#e92e30"/>
    <path id="Path_1534" data-name="Path 1534" d="M-884.546,22.814c.352-.326.73-.65,1.077-1,1.252-1.274,2.491-2.561,3.741-3.838a1.324,1.324,0,0,1,2.211.454,1.264,1.264,0,0,1-.3,1.4q-2.1,2.173-4.211,4.332l-.629.648.788.812q2.014,2.07,4.028,4.141a1.3,1.3,0,0,1,.345,1.357,1.259,1.259,0,0,1-1,.911,1.262,1.262,0,0,1-1.225-.364c-1.291-1.32-2.574-2.649-3.866-3.968-.311-.318-.647-.611-.959-.9-.164.155-.368.336-.558.531q-2.022,2.073-4.038,4.151a1.738,1.738,0,0,1-.737.525,1.339,1.339,0,0,1-1.538-.574,1.319,1.319,0,0,1,.162-1.608c.663-.695,1.336-1.38,2.005-2.069q1.378-1.418,2.758-2.832c.084-.086.086-.13,0-.22q-1.9-1.946-3.8-3.9c-.307-.316-.613-.633-.922-.947a1.332,1.332,0,0,1,0-1.91,1.327,1.327,0,0,1,1.9.029c1.318,1.352,2.63,2.711,3.949,4.062C-885.082,22.315-884.789,22.58-884.546,22.814Z" transform="translate(900.216 -8.911)" fill="#fff" stroke="rgba(0,0,0,0)" stroke-miterlimit="10" stroke-width="1"/>
  </g>
</svg>
